<?xml version="1.0" standalone="no"?>
<!DOCTYPE svg PUBLIC "-//W3C//DTD SVG 20010904//EN"
 "http://www.w3.org/TR/2001/REC-SVG-20010904/DTD/svg10.dtd">
<svg version="1.0" xmlns="http://www.w3.org/2000/svg"
 width="483.000000pt" height="517.000000pt" viewBox="0 0 483.000000 517.000000"
 preserveAspectRatio="xMidYMid meet">

<g transform="translate(0.000000,517.000000) scale(0.100000,-0.100000)"
fill="#000000" stroke="none">
<path d="M529 4676 c-86 -31 -104 -41 -161 -88 -67 -55 -88 -105 -94 -224 -9
-144 21 -307 95 -517 48 -136 167 -382 251 -514 28 -45 30 -46 30 -20 0 17 5
27 15 27 11 0 15 -12 15 -50 0 -27 4 -50 8 -50 14 0 46 40 38 47 -4 4 -11 1
-15 -6 -7 -10 -10 -10 -16 -1 -10 16 9 33 31 28 26 -5 34 -118 9 -118 -21 0 0
-31 101 -150 119 -140 265 -254 368 -286 52 -16 54 -16 75 5 25 25 27 33 6 25
-8 -4 -15 -2 -15 4 0 15 26 22 39 9 6 -6 11 -19 11 -30 0 -16 5 -18 38 -12 33
5 42 2 79 -30 23 -19 45 -35 51 -35 5 0 17 -9 27 -20 12 -13 29 -19 54 -18 53
2 82 -10 120 -51 29 -31 32 -41 28 -76 -6 -58 -33 -109 -82 -158 -56 -55 -95
-87 -106 -87 -5 0 -9 -4 -9 -10 0 -5 -7 -10 -15 -10 -8 0 -15 -4 -15 -10 0 -5
-6 -10 -12 -10 -7 -1 -31 -9 -53 -20 -22 -11 -46 -19 -53 -20 -7 0 -20 -4 -30
-10 -9 -5 -33 -16 -52 -25 -20 -8 -51 -29 -69 -45 -18 -17 -35 -30 -38 -30
-12 0 -102 -103 -98 -110 3 -5 -2 -10 -10 -14 -8 -3 -15 -12 -15 -21 0 -8 -3
-15 -7 -15 -11 0 -33 -51 -27 -61 3 -5 1 -9 -4 -9 -15 0 -42 -151 -39 -220 4
-73 36 -220 49 -220 4 0 8 -9 8 -20 0 -11 5 -20 11 -20 5 0 8 -4 5 -9 -3 -5 1
-14 9 -21 8 -7 15 -19 15 -26 0 -8 5 -14 10 -14 6 0 10 -6 10 -13 0 -7 18 -32
40 -56 22 -23 40 -47 40 -52 0 -5 7 -9 15 -9 8 0 15 -7 15 -15 0 -8 4 -15 9
-15 6 0 21 -10 35 -23 13 -12 37 -29 53 -37 15 -8 30 -17 33 -20 3 -3 41 -23
85 -44 44 -20 88 -42 98 -47 10 -5 22 -7 27 -4 6 4 10 2 10 -3 0 -6 17 -13 38
-17 20 -4 42 -11 49 -17 7 -5 17 -7 22 -4 5 4 12 2 16 -4 4 -6 11 -7 17 -4 6
4 13 2 17 -4 4 -6 25 -14 48 -16 23 -3 64 -11 90 -17 26 -6 64 -12 83 -15 19
-3 53 -7 75 -10 77 -11 360 -12 372 -2 7 6 24 8 38 6 14 -3 50 0 80 7 30 7 55
11 55 8 0 -3 6 -1 13 5 6 6 29 13 50 17 20 4 37 11 37 16 0 5 9 9 20 9 11 0
20 5 20 10 0 6 5 10 11 10 25 0 98 65 117 103 38 76 43 114 26 190 -9 37 -22
71 -30 74 -8 3 -14 10 -14 16 0 15 -70 77 -87 77 -7 0 -13 5 -13 10 0 6 -8 10
-18 10 -10 0 -22 4 -28 9 -9 10 -196 59 -224 59 -8 0 -33 3 -55 6 -22 3 -62 8
-90 11 -27 3 -68 7 -90 9 -22 3 -80 8 -130 12 -49 3 -99 8 -109 10 -11 2 -40
6 -65 9 -25 3 -61 9 -80 15 -19 5 -37 7 -42 5 -4 -3 -11 0 -14 6 -4 5 -13 8
-21 5 -8 -3 -14 -1 -14 4 0 6 -7 10 -16 10 -26 0 -100 51 -118 81 -19 32 -21
115 -4 156 6 15 11 31 10 35 -1 5 2 8 8 8 5 0 10 7 10 15 0 8 3 15 8 15 4 0
22 13 40 28 18 16 39 29 45 30 14 1 52 10 52 12 0 2 63 9 118 13 26 2 50 0 53
-5 3 -5 9 -6 13 -4 4 3 32 -1 61 -9 29 -8 57 -12 61 -9 4 2 11 -1 14 -7 4 -5
13 -8 21 -5 8 3 14 2 14 -3 0 -4 25 -14 55 -21 30 -7 55 -16 55 -20 0 -4 16
-11 35 -14 19 -4 35 -10 35 -15 0 -4 16 -13 35 -21 19 -8 35 -17 35 -22 0 -5
11 -6 23 -3 18 5 28 0 41 -20 9 -14 21 -23 26 -20 6 4 10 1 10 -5 0 -10 48
-35 63 -32 4 1 7 -3 7 -8 0 -6 7 -10 15 -10 8 0 30 -9 49 -19 19 -11 37 -17
40 -14 3 4 6 1 6 -5 0 -7 9 -12 20 -12 11 0 20 -4 20 -10 0 -5 8 -10 18 -10
10 0 22 -3 26 -8 4 -4 11 -7 14 -8 4 0 20 -6 35 -12 16 -7 34 -12 41 -12 6 0
16 -4 22 -9 11 -10 76 -32 85 -28 3 1 13 -4 23 -12 9 -8 19 -11 23 -8 3 4 11
3 17 -2 11 -9 157 -49 206 -56 14 -2 35 -7 48 -10 55 -13 69 -16 107 -20 22
-2 63 -8 90 -12 28 -4 118 -7 200 -8 139 0 157 2 238 29 48 15 87 32 87 37 0
5 7 9 15 9 9 0 18 7 21 15 4 8 10 15 15 15 12 0 49 37 49 49 0 5 6 11 13 14
20 8 64 104 77 169 13 66 12 144 -3 208 -43 183 -238 282 -412 209 -16 -7 -33
-12 -37 -11 -3 1 -12 -5 -18 -13 -7 -8 -19 -15 -26 -15 -8 0 -14 -4 -14 -10 0
-5 -6 -10 -14 -10 -8 0 -35 -20 -61 -44 -26 -25 -62 -55 -81 -68 -19 -13 -34
-26 -34 -30 0 -5 -7 -8 -15 -8 -8 0 -15 -4 -15 -10 0 -5 -7 -10 -15 -10 -8 0
-15 -4 -15 -10 0 -5 -5 -10 -11 -10 -5 0 -30 -9 -54 -20 -58 -26 -162 -36
-212 -19 -103 34 -144 95 -149 221 -2 61 -7 83 -20 93 -16 11 -16 13 4 33 20
20 20 26 0 23 -5 0 -8 3 -8 8 0 5 10 11 22 13 13 2 24 11 26 23 2 11 14 40 25
65 12 25 20 48 19 53 -1 4 2 7 7 7 5 0 14 12 20 28 14 33 113 142 130 142 6 0
11 5 11 10 0 7 13 9 33 5 24 -5 39 -1 59 14 14 12 30 21 34 21 5 0 25 16 45
36 35 34 40 36 75 27 31 -7 42 -5 56 9 22 22 23 29 3 22 -8 -4 -15 -2 -15 4 0
15 26 22 39 9 6 -6 11 -21 11 -34 0 -27 12 -28 69 -8 107 37 263 166 399 329
l66 79 -3 74 -2 74 38 -5 c21 -2 45 0 54 5 15 7 90 130 156 255 64 118 149
347 185 494 26 106 36 343 18 410 -18 68 -114 158 -205 193 -39 14 -89 29
-113 33 -39 6 -44 4 -49 -15 -3 -11 -10 -21 -15 -21 -5 0 -7 -4 -3 -10 3 -5
-8 -36 -24 -68 -49 -96 -100 -342 -72 -342 6 0 11 5 11 11 0 6 10 9 23 7 22
-3 23 -7 18 -68 -2 -23 -51 -25 -51 -2 0 13 -2 14 -9 3 -5 -7 -7 -21 -6 -30 2
-9 4 -19 4 -23 2 -14 68 -28 135 -28 103 0 146 -32 146 -106 0 -52 -36 -124
-144 -287 -45 -67 -102 -171 -132 -240 -50 -115 -54 -127 -54 -204 0 -66 -3
-83 -14 -83 -11 0 -16 14 -19 48 l-3 47 -2 -46 -2 -46 -47 -12 c-83 -21 -97
-23 -126 -12 -16 6 -38 30 -55 58 -29 50 -89 113 -109 113 -7 0 -25 -12 -40
-26 -15 -14 -44 -34 -63 -44 -63 -33 -240 -227 -240 -264 0 -4 -14 -24 -31
-43 -27 -32 -29 -37 -16 -56 8 -12 39 -41 70 -65 l56 -43 -23 -42 c-52 -98
-69 -109 -87 -57 -12 33 -39 40 -59 15 -7 -8 -19 -15 -26 -15 -8 0 -14 -7 -14
-15 0 -8 -5 -15 -10 -15 -14 0 -80 -64 -80 -77 0 -6 -7 -14 -16 -17 -8 -3 -13
-10 -10 -15 3 -5 -1 -12 -10 -15 -9 -3 -14 -11 -12 -18 2 -6 -6 -23 -19 -36
-13 -14 -21 -32 -19 -39 3 -7 1 -13 -4 -13 -6 0 -10 -9 -10 -19 0 -11 -5 -23
-11 -26 -6 -4 -8 -13 -5 -21 3 -8 0 -14 -5 -14 -6 0 -9 -9 -6 -20 3 -11 1 -23
-5 -26 -5 -3 -7 -12 -4 -20 3 -8 1 -14 -4 -14 -6 0 -9 -18 -7 -41 2 -22 0 -42
-5 -45 -5 -3 -4 -12 2 -19 8 -9 8 -15 0 -20 -6 -4 -7 -12 -1 -22 4 -9 6 -24 4
-34 -3 -11 -1 -19 5 -19 6 0 8 -9 5 -20 -3 -11 -1 -20 5 -20 6 0 8 -9 5 -20
-3 -11 0 -20 6 -20 6 0 11 -7 11 -15 0 -9 7 -18 15 -21 8 -4 15 -12 15 -20 0
-8 7 -14 15 -14 8 0 15 -7 15 -15 0 -8 9 -15 19 -15 10 0 21 -7 25 -15 3 -8
12 -12 21 -9 8 4 15 1 15 -6 0 -7 8 -10 20 -7 11 3 20 1 20 -5 0 -5 8 -8 18
-6 9 1 23 -1 30 -6 7 -4 19 -3 26 4 11 8 15 8 19 -2 3 -10 7 -10 17 -1 7 6 18
9 25 7 7 -3 16 -1 19 5 4 6 13 8 20 5 8 -3 17 0 21 5 3 6 10 9 15 6 5 -3 24 3
43 14 19 11 37 18 40 15 2 -2 10 2 17 11 7 8 19 15 26 15 8 0 14 5 14 10 0 6
7 10 15 10 8 0 15 7 15 16 0 8 5 12 11 8 6 -3 24 8 39 25 16 17 32 31 36 31 4
0 16 10 28 23 26 28 111 87 125 87 6 0 11 4 11 10 0 5 6 7 14 4 8 -3 17 -1 20
5 4 6 13 8 21 4 8 -3 15 -1 15 3 0 10 76 11 86 2 3 -4 12 -4 19 -2 7 3 16 0
20 -5 3 -6 11 -9 16 -6 5 4 9 1 9 -4 0 -6 5 -11 11 -11 17 0 111 -105 102
-113 -3 -3 -1 -12 3 -19 5 -7 9 -26 10 -43 1 -16 3 -32 4 -35 1 -3 1 -9 0 -15
-1 -5 -3 -31 -5 -56 -1 -26 -5 -52 -9 -58 -4 -6 -4 -16 -1 -21 3 -6 1 -10 -5
-10 -7 0 -10 -7 -6 -15 3 -8 1 -15 -4 -15 -6 0 -10 -6 -10 -13 0 -7 -9 -23
-20 -35 -11 -12 -20 -26 -20 -32 0 -5 -4 -10 -8 -10 -5 0 -24 -15 -43 -33 -19
-17 -38 -32 -44 -33 -24 -3 -55 -17 -55 -26 0 -5 -4 -6 -10 -3 -5 3 -16 3 -22
-1 -13 -8 -33 -12 -81 -15 -15 -1 -30 -6 -33 -11 -3 -4 -11 -5 -17 -1 -7 4
-61 8 -122 9 -60 1 -112 3 -115 5 -3 1 -18 3 -35 5 -16 1 -34 3 -40 5 -5 1
-14 3 -20 4 -21 4 -110 19 -115 20 -3 0 -11 4 -18 9 -7 4 -16 6 -18 3 -5 -5
-213 46 -244 60 -8 3 -18 7 -22 8 -5 2 -11 4 -15 5 -5 2 -12 4 -18 5 -5 1 -23
8 -40 15 -29 12 -39 16 -67 23 -12 3 -72 29 -148 65 -19 9 -37 17 -40 18 -3 1
-15 5 -27 9 -13 4 -23 11 -23 15 0 8 -52 24 -58 18 -2 -2 -8 5 -13 15 -6 9
-14 15 -19 12 -4 -3 -11 2 -14 11 -4 9 -13 14 -21 10 -8 -3 -15 -2 -15 2 0 4
-15 13 -32 21 -18 8 -35 17 -38 21 -10 12 -126 64 -170 75 -3 1 -18 7 -33 13
-16 7 -34 12 -42 12 -8 0 -16 4 -20 9 -3 6 -13 10 -23 10 -28 -1 -88 8 -98 13
-15 9 -223 7 -229 -2 -3 -4 -14 -6 -25 -3 -12 3 -20 0 -20 -7 0 -7 -7 -10 -15
-6 -9 3 -18 -1 -21 -9 -4 -8 -10 -13 -14 -10 -5 3 -14 -1 -22 -8 -7 -7 -21
-16 -31 -20 -10 -4 -15 -11 -12 -17 3 -5 -1 -10 -9 -10 -14 0 -59 -69 -62 -95
0 -5 -4 -18 -8 -27 -4 -9 -5 -22 -1 -28 3 -5 1 -10 -4 -10 -6 0 -11 -7 -11
-15 0 -8 5 -15 11 -15 8 0 8 -4 -1 -15 -7 -8 -8 -20 -4 -27 5 -7 7 -21 6 -30
-2 -10 2 -18 7 -18 6 0 11 -9 11 -20 0 -11 5 -20 10 -20 6 0 10 -6 10 -14 0
-12 46 -50 60 -49 3 0 10 -7 16 -15 6 -8 16 -12 21 -9 6 4 14 0 17 -9 4 -9 13
-14 21 -10 8 3 15 0 15 -5 0 -6 9 -9 20 -6 11 3 20 2 20 -2 0 -10 99 -33 111
-25 5 3 9 0 9 -5 0 -7 17 -10 40 -8 22 2 40 0 40 -4 0 -4 18 -6 40 -5 22 1 41
-3 43 -8 2 -7 10 -6 20 3 11 9 17 10 17 2 0 -7 15 -10 40 -8 22 2 40 0 40 -4
0 -4 10 -7 23 -6 19 0 152 -10 224 -17 13 -2 26 -6 30 -9 3 -4 12 -2 20 4 10
9 13 8 13 -1 0 -7 8 -10 20 -7 11 3 20 1 20 -5 0 -6 9 -8 20 -5 11 3 20 1 20
-5 0 -6 7 -8 15 -5 8 4 17 2 21 -4 3 -6 12 -8 20 -5 8 3 14 1 14 -4 0 -5 16
-12 35 -16 19 -3 35 -10 35 -15 0 -5 7 -9 15 -9 8 0 15 -4 15 -10 0 -5 5 -10
11 -10 15 0 59 -51 59 -67 0 -7 4 -13 10 -13 5 0 7 -7 4 -15 -4 -8 -2 -15 2
-15 5 0 9 -18 9 -40 0 -22 -4 -40 -9 -40 -4 0 -6 -7 -2 -15 3 -8 1 -15 -4 -15
-6 0 -10 -7 -10 -15 0 -8 -4 -15 -8 -15 -5 0 -15 -11 -22 -25 -7 -14 -19 -25
-27 -25 -7 0 -13 -4 -13 -10 0 -5 -7 -10 -15 -10 -8 0 -15 -5 -15 -11 0 -5 -4
-8 -10 -4 -5 3 -17 1 -27 -5 -25 -14 -74 -32 -100 -36 -13 -2 -35 -6 -50 -8
-16 -3 -28 -5 -28 -6 0 -1 -16 -3 -35 -6 -56 -8 -370 -10 -370 -2 0 4 -12 7
-27 7 -16 0 -44 3 -63 6 -19 4 -49 8 -66 9 -17 2 -36 6 -42 10 -7 4 -16 5 -21
1 -5 -3 -13 0 -16 6 -4 5 -13 8 -21 5 -7 -3 -16 -1 -19 5 -4 5 -10 7 -15 4 -7
-4 -49 6 -90 23 -8 3 -19 6 -25 7 -5 0 -16 4 -22 8 -7 5 -18 5 -23 2 -5 -3
-10 -2 -10 3 0 6 -12 13 -27 18 -37 10 -34 9 -68 24 -16 7 -33 13 -37 12 -5
-1 -8 2 -8 6 0 5 -16 14 -35 22 -19 8 -35 17 -35 22 0 4 -6 8 -13 8 -7 0 -23
9 -35 20 -12 11 -25 20 -31 20 -5 0 -12 7 -15 16 -4 9 -9 14 -12 11 -10 -9
-114 111 -114 131 0 6 -4 12 -10 12 -5 0 -10 7 -10 15 0 8 -4 15 -10 15 -5 0
-10 7 -10 15 0 8 -4 15 -9 15 -5 0 -12 16 -15 35 -4 19 -11 35 -17 35 -6 0 -7
5 -4 10 3 6 3 15 -1 22 -9 14 -17 62 -16 96 0 12 -5 22 -10 22 -7 0 -6 5 1 13
8 10 7 17 -1 25 -9 9 -9 12 -1 12 7 0 10 14 9 35 -2 19 1 35 6 35 5 0 8 8 7
18 -1 9 0 20 1 25 1 4 3 10 5 15 1 4 8 21 15 37 7 17 13 33 12 38 -1 4 1 7 6
7 4 0 13 14 20 30 21 48 126 147 180 171 18 8 32 17 32 20 0 4 16 10 35 13 19
4 35 11 35 16 0 5 7 7 15 4 8 -4 17 1 21 10 3 9 10 14 14 11 5 -3 28 6 52 20
24 14 51 28 61 32 9 3 17 12 17 20 0 8 4 11 10 8 12 -8 140 120 140 140 0 8 5
15 10 15 6 0 10 9 10 19 0 11 5 21 10 23 6 2 12 19 14 39 2 20 6 41 10 48 4 6
4 17 0 23 -5 7 -9 21 -10 32 0 11 -6 22 -13 24 -6 2 -9 8 -6 12 11 17 -94 94
-130 95 -5 0 -16 5 -24 10 -10 5 -16 4 -19 -3 -2 -6 -12 -22 -22 -34 -18 -22
-18 -23 -39 -4 -12 11 -21 25 -21 32 0 7 -9 28 -21 48 l-20 34 36 29 c57 43
95 83 95 98 0 23 -12 45 -21 40 -4 -3 -21 20 -36 52 -31 65 -200 245 -242 258
-14 4 -40 23 -59 41 l-35 34 -31 -23 c-17 -13 -49 -51 -71 -85 -43 -66 -60
-76 -152 -88 -35 -4 -53 -3 -53 4 0 6 8 13 18 15 15 4 15 5 0 6 -9 0 -21 13
-26 29 -9 24 -10 25 -11 5 -2 -39 -21 -25 -21 15 0 20 -5 44 -10 52 -7 11 -10
0 -10 -37 0 -40 -4 -53 -14 -53 -11 0 -16 15 -19 53 l-3 52 -2 -52 c-2 -40 -6
-53 -17 -53 -12 0 -15 13 -15 59 l0 60 30 -1 c17 -1 33 2 36 5 6 5 -15 57 -92
224 -18 40 -72 131 -120 204 -83 126 -133 223 -134 262 0 28 26 72 54 91 18
11 47 16 99 16 92 0 133 13 139 45 5 21 2 23 -27 18 -38 -6 -54 17 -29 42 14
13 14 15 0 15 -9 0 -16 5 -16 10 0 17 29 23 45 10 13 -11 15 -6 15 33 0 90
-55 292 -86 318 -8 6 -14 24 -14 40 0 16 -4 29 -10 29 -5 0 -10 7 -10 15 0 22
-43 18 -121 -9z m21 -20 c0 -2 -7 -7 -16 -10 -8 -3 -12 -2 -9 4 6 10 25 14 25
6z m3745 -6 c3 -6 -1 -7 -9 -4 -18 7 -21 14 -7 14 6 0 13 -4 16 -10z m-231
-1362 c3 -13 6 -39 6 -59 0 -36 -1 -37 -35 -37 -29 0 -35 4 -35 21 0 11 10 31
22 44 12 13 18 26 14 30 -4 4 -11 1 -16 -7 -11 -18 -25 -6 -17 15 10 24 54 19
61 -7z m-2849 1 c-4 -6 -9 -8 -12 -5 -3 3 -20 -4 -37 -15 l-31 -21 30 26 c30
26 62 36 50 15z m2426 -6 c11 -15 11 -16 0 -6 -7 6 -20 9 -27 6 -8 -3 -14 0
-14 6 0 17 26 13 41 -6z"/>
<path d="M4025 3237 c-4 -10 -5 -21 -1 -24 10 -10 18 4 13 24 -4 17 -4 17 -12
0z"/>
<path d="M4113 3250 c0 -25 2 -35 4 -22 2 12 2 32 0 45 -2 12 -4 2 -4 -23z"/>
<path d="M715 3237 c-4 -10 -5 -21 -1 -24 10 -10 18 4 13 24 -4 17 -4 17 -12
0z"/>
</g>
</svg>
